<?xml version="1.0" standalone="no"?>
<!DOCTYPE svg PUBLIC "-//W3C//DTD SVG 20010904//EN"
 "http://www.w3.org/TR/2001/REC-SVG-20010904/DTD/svg10.dtd">
<svg version="1.0" xmlns="http://www.w3.org/2000/svg"
 width="72.000000pt" height="60.000000pt" viewBox="0 0 72.000000 60.000000"
 preserveAspectRatio="xMidYMid meet">

<g transform="translate(0.000000,60.000000) scale(0.100000,-0.100000)"
fill="#0000FF" stroke="none">
<path d="M110 551 c-107 -107 -134 -240 -78 -389 22 -59 114 -162 145 -161 15
0 14 3 -7 17 -43 29 -90 82 -118 136 -24 45 -27 62 -27 146 0 89 2 99 35 159
22 41 52 78 83 103 29 22 42 38 32 38 -9 0 -38 -22 -65 -49z"/>
<path d="M314 552 c-47 -69 -64 -108 -54 -118 5 -5 11 -29 13 -54 3 -31 4 -24
3 20 0 68 18 113 63 155 25 22 37 14 82 -56 24 -38 29 -53 20 -62 -14 -14 -15
-97 -1 -97 6 0 10 20 10 44 0 25 5 48 10 51 12 7 4 25 -49 107 -20 31 -43 57
-51 57 -8 0 -29 -21 -46 -47z"/>
<path d="M555 577 c51 -37 86 -80 114 -137 36 -75 37 -200 3 -275 -26 -56 -60
-97 -74 -89 -5 3 -1 12 8 19 16 11 14 17 -21 74 -28 47 -41 61 -54 56 -35 -15
-50 -17 -67 -7 -12 7 -32 3 -71 -14 -67 -30 -71 -30 -83 1 -5 14 -14 25 -19
25 -36 0 -120 -61 -142 -103 -11 -19 -9 -19 72 -13 l84 7 45 -61 c39 -53 60
-72 60 -54 0 3 -20 30 -44 59 -30 38 -43 61 -39 75 6 24 108 73 135 64 26 -8
17 -26 -18 -36 -16 -5 -37 -15 -48 -23 -17 -13 -17 -16 19 -75 28 -47 41 -60
54 -54 9 4 31 12 49 19 18 6 38 20 46 30 11 16 13 16 19 2 4 -11 -5 -25 -26
-42 -23 -18 -27 -25 -15 -25 26 0 112 91 137 145 46 99 46 211 0 311 -27 56
-110 144 -136 144 -14 -1 -11 -6 12 -23z m-257 -384 c7 -12 5 -24 -5 -40 -13
-19 -24 -23 -71 -23 l-55 0 19 21 c22 26 74 59 91 59 7 0 16 -8 21 -17z m272
-30 l30 -47 -36 -33 c-20 -18 -45 -33 -55 -33 -10 0 -21 -4 -24 -10 -13 -21
-31 -8 -58 40 l-28 49 29 15 c16 8 32 13 35 9 4 -3 20 8 36 26 16 17 32 31 35
31 4 0 20 -21 36 -47z"/>
<path d="M300 390 c0 -5 7 -10 15 -10 8 0 15 -6 15 -14 0 -8 3 -22 6 -30 6
-15 -9 -25 -80 -50 -10 -3 -16 -9 -14 -12 3 -3 32 4 63 14 52 18 62 19 98 6
61 -21 79 -16 22 7 -65 27 -75 36 -75 70 0 24 -4 29 -25 29 -14 0 -25 -4 -25
-10z"/>
<path d="M380 390 c0 -5 9 -10 20 -10 11 0 20 5 20 10 0 6 -9 10 -20 10 -11 0
-20 -4 -20 -10z"/>
<path d="M300 250 c0 -5 11 -17 25 -26 30 -20 70 -12 85 16 13 23 -2 27 -20 5
-7 -8 -23 -15 -37 -15 -13 0 -26 7 -29 15 -7 17 -24 20 -24 5z"/>
</g>
</svg>
